<svg xmlns="http://www.w3.org/2000/svg" width="800" height="600" viewBox="0 0 800 600">
  <defs>
    <linearGradient id="g4" x1="0" x2="1" y1="0" y2="1">
      <stop offset="0" stop-color="#fdf2f8"/>
      <stop offset="1" stop-color="#fce7f3"/>
    </linearGradient>
    <filter id="s4" x="-20%" y="-20%" width="140%" height="140%">
      <feDropShadow dx="0" dy="8" stdDeviation="16" flood-color="#000" flood-opacity="0.15"/>
    </filter>
  </defs>
  <rect x="40" y="40" width="720" height="520" rx="28" fill="url(#g4)" filter="url(#s4)"/>
  <g transform="translate(160,80)">
    <rect x="0" y="0" width="480" height="440" rx="24" fill="#fff"/>
    <g transform="translate(80,40)">
      <path d="M160 40c40 0 76 28 88 64l36-8 28 44-36 16v112c0 20-10 38-26 52l-54 46-54-46c-16-14-26-32-26-52V156l-36-16 28-44 36 8c12-36 48-64 88-64z" fill="#e9ecef"/>
      <rect x="126" y="190" width="120" height="80" rx="12" fill="#FF4C29" opacity="0.9"/>
    </g>
  </g>
</svg>