<svg xmlns="http://www.w3.org/2000/svg" width="800" height="600" viewBox="0 0 800 600">
  <defs>
    <linearGradient id="g5" x1="0" x2="1" y1="0" y2="1">
      <stop offset="0" stop-color="#f0f9ff"/>
      <stop offset="1" stop-color="#e0f2fe"/>
    </linearGradient>
    <filter id="s5" x="-20%" y="-20%" width="140%" height="140%">
      <feDropShadow dx="0" dy="8" stdDeviation="16" flood-color="#000" flood-opacity="0.15"/>
    </filter>
  </defs>
  <rect x="40" y="40" width="720" height="520" rx="28" fill="url(#g5)" filter="url(#s5)"/>
  <g transform="translate(160,80)">
    <rect x="0" y="0" width="480" height="440" rx="24" fill="#fff"/>
    <g transform="translate(70,60)">
      <path d="M160 40c28 0 60 20 84 36l44-10 32 46-40 18v90c0 46-38 84-84 84h-68c-46 0-84-38-84-84v-90l-40-18 32-46 44 10c24-16 56-36 84-36z" fill="#e6e6e6"/>
      <rect x="126" y="170" width="120" height="64" rx="12" fill="#FF4C29" opacity="0.9"/>
    </g>
  </g>
</svg>