<svg xmlns="http://www.w3.org/2000/svg" width="800" height="600" viewBox="0 0 800 600">
  <defs>
    <linearGradient id="g2" x1="0" x2="1" y1="0" y2="1">
      <stop offset="0" stop-color="#eef2ff"/>
      <stop offset="1" stop-color="#e0e7ff"/>
    </linearGradient>
    <filter id="s2" x="-20%" y="-20%" width="140%" height="140%">
      <feDropShadow dx="0" dy="8" stdDeviation="16" flood-color="#000" flood-opacity="0.15"/>
    </filter>
  </defs>
  <rect x="40" y="40" width="720" height="520" rx="28" fill="url(#g2)" filter="url(#s2)"/>
  <g transform="translate(160,80)">
    <rect x="0" y="0" width="480" height="440" rx="24" fill="#fff"/>
    <g transform="translate(70,30)">
      <path d="M160 60c40 0 80 20 116 56l44-10 32 48-40 18v160c0 44-36 80-80 80h-96c-44 0-80-36-80-80V172l-40-18 32-48 44 10c36-36 76-56 116-56z" fill="#e8e8e8"/>
      <path d="M160 110c-20 0-68 24-68 44 0 4 6 8 12 8h112c6 0 12-4 12-8 0-20-48-44-68-44z" fill="#d1d5db"/>
      <rect x="120" y="210" width="128" height="78" rx="12" fill="#FF4C29" opacity="0.9"/>
    </g>
  </g>
</svg>