<svg xmlns="http://www.w3.org/2000/svg" width="800" height="600" viewBox="0 0 800 600">
  <defs>
    <linearGradient id="g" x1="0" x2="1" y1="0" y2="1">
      <stop offset="0" stop-color="#fef3f2"/>
      <stop offset="1" stop-color="#fde7e3"/>
    </linearGradient>
    <filter id="s" x="-20%" y="-20%" width="140%" height="140%">
      <feDropShadow dx="0" dy="8" stdDeviation="16" flood-color="#000" flood-opacity="0.15"/>
    </filter>
  </defs>
  <rect x="40" y="40" width="720" height="520" rx="28" fill="url(#g)" filter="url(#s)"/>
  <g transform="translate(160,80)">
    <rect x="0" y="0" width="480" height="440" rx="24" fill="#fff"/>
    <g transform="translate(70,40)">
      <path d="M160 40c32 0 64 20 84 40l44-12 40 52-44 16v148c0 48-40 88-88 88h-72c-48 0-88-40-88-88V136l-44-16 40-52 44 12c20-20 52-40 84-40z" fill="#e6e6e6"/>
      <rect x="126" y="190" width="120" height="80" rx="12" fill="#FF4C29" opacity="0.9"/>
    </g>
  </g>
</svg>